<svg width="1280" height="720" xmlns="http://www.w3.org/2000/svg" xmlns:xlink="http://www.w3.org/1999/xlink" overflow="hidden"><defs><clipPath id="clip0"><rect x="0" y="0" width="1280" height="720"/></clipPath></defs><g clip-path="url(#clip0)"><rect x="0" y="0" width="1280" height="720" fill="#002060"/><path d="M34 116.268C34 112.254 37.254 109 41.268 109L244.732 109C248.746 109 252 112.254 252 116.268L252 687.732C252 691.746 248.746 695 244.732 695L41.268 695C37.254 695 34 691.746 34 687.732Z" fill="#F2F2F2" fill-rule="evenodd"/><path d="M272 117.935C272 113 276 109 280.935 109L1237.07 109C1242 109 1246 113 1246 117.935L1246 368.065C1246 373 1242 377 1237.07 377L280.935 377C276 377 272 373 272 368.065Z" fill="#F2F2F2" fill-rule="evenodd"/><path d="M272 404.069C272 398.508 276.508 394 282.069 394L1235.93 394C1241.49 394 1246 398.508 1246 404.069L1246 685.931C1246 691.492 1241.49 696 1235.93 696L282.069 696C276.508 696 272 691.492 272 685.931Z" fill="#F2F2F2" fill-rule="evenodd"/></g></svg>