<svg width="1280" height="720" xmlns="http://www.w3.org/2000/svg" xmlns:xlink="http://www.w3.org/1999/xlink" overflow="hidden"><defs><clipPath id="clip0"><rect x="0" y="0" width="1280" height="720"/></clipPath></defs><g clip-path="url(#clip0)"><rect x="0" y="0" width="1280" height="720" fill="#002060"/><path d="M34 221.769C34 216.374 38.3736 212 43.7688 212L317.231 212C322.626 212 327 216.374 327 221.769L327 685.231C327 690.626 322.626 695 317.231 695L43.7688 695C38.3736 695 34 690.626 34 685.231Z" fill="#F2F2F2" fill-rule="evenodd"/><path d="M346 112.502C346 107.254 350.254 103 355.502 103L690.498 103C695.746 103 700 107.254 700 112.502L700 378.498C700 383.746 695.746 388 690.498 388L355.502 388C350.254 388 346 383.746 346 378.498Z" fill="#F2F2F2" fill-rule="evenodd"/><path d="M346 413.702C346 408.344 350.344 404 355.702 404L690.298 404C695.656 404 700 408.344 700 413.702L700 685.298C700 690.656 695.656 695 690.298 695L355.702 695C350.344 695 346 690.656 346 685.298Z" fill="#F2F2F2" fill-rule="evenodd"/><path d="M719 114.636C719 108.21 724.21 103 730.636 103L1234.36 103C1240.79 103 1246 108.21 1246 114.636L1246 683.364C1246 689.79 1240.79 695 1234.36 695L730.636 695C724.21 695 719 689.79 719 683.364Z" fill="#F2F2F2" fill-rule="evenodd"/><path d="M34 111.804C34 106.942 37.9417 103 42.8041 103L318.196 103C323.058 103 327 106.942 327 111.804L327 190.196C327 195.058 323.058 199 318.196 199L42.8041 199C37.9417 199 34 195.058 34 190.196Z" fill="#F2F2F2" fill-rule="evenodd"/></g></svg>